<?xml version="1.0" encoding="UTF-8"?>
<svg xmlns="http://www.w3.org/2000/svg" xmlns:xlink="http://www.w3.org/1999/xlink" width="40px" height="40px" viewBox="0 0 40 40" version="1.1">
<defs>
<filter id="alpha" filterUnits="objectBoundingBox" x="0%" y="0%" width="100%" height="100%">
  <feColorMatrix type="matrix" in="SourceGraphic" values="0 0 0 0 1 0 0 0 0 1 0 0 0 0 1 0 0 0 1 0"/>
</filter>
<mask id="mask0">
  <g filter="url(#alpha)">
<rect x="0" y="0" width="40" height="40" style="fill:rgb(0%,0%,0%);fill-opacity:0.501961;stroke:none;"/>
  </g>
</mask>
<clipPath id="clip1">
  <rect x="0" y="0" width="40" height="40"/>
</clipPath>
<g id="surface5" clip-path="url(#clip1)">
<path style=" stroke:none;fill-rule:nonzero;fill:rgb(0%,0%,0%);fill-opacity:1;" d="M 32.148438 25.101562 C 32.273438 24.972656 32.375 24.828125 32.449219 24.667969 C 32.523438 24.503906 32.5625 24.328125 32.566406 24.148438 C 32.5625 23.976562 32.523438 23.808594 32.449219 23.648438 C 32.375 23.488281 32.273438 23.34375 32.148438 23.214844 C 32.015625 23.101562 31.855469 23.015625 31.683594 22.964844 C 31.511719 22.933594 31.335938 22.933594 31.167969 22.964844 C 30.949219 22.96875 30.734375 23.03125 30.550781 23.148438 C 30.367188 23.265625 30.21875 23.425781 30.117188 23.617188 L 26.667969 23.617188 L 26.667969 24.785156 L 30.082031 24.785156 C 30.183594 24.984375 30.339844 25.152344 30.535156 25.265625 C 30.722656 25.386719 30.941406 25.449219 31.167969 25.449219 C 31.335938 25.484375 31.511719 25.484375 31.683594 25.449219 C 31.863281 25.371094 32.023438 25.25 32.148438 25.101562 Z M 31.667969 24.148438 Z M 32.101562 17.582031 L 34.300781 15.382812 C 34.433594 15.816406 34.550781 16.25 34.648438 16.683594 L 32.566406 18.75 L 29.648438 18.75 L 29.648438 20 L 28.484375 20 L 28.484375 17.667969 Z M 16.332031 31.667969 L 17.484375 31.667969 L 17.484375 33.566406 L 16.566406 34.5 C 16.132812 34.398438 15.699219 34.285156 15.285156 34.148438 L 16.332031 33.101562 Z M 20.601562 30.648438 L 20.601562 28.332031 L 19.433594 28.332031 L 19.433594 30.714844 C 19.238281 30.820312 19.074219 30.96875 18.949219 31.148438 C 18.832031 31.335938 18.769531 31.546875 18.765625 31.765625 C 18.765625 32.457031 19.328125 33.015625 20.015625 33.015625 C 20.171875 33.042969 20.328125 33.042969 20.484375 33.015625 C 20.636719 32.953125 20.777344 32.863281 20.898438 32.75 C 21.011719 32.632812 21.101562 32.5 21.167969 32.351562 C 21.234375 32.203125 21.265625 32.042969 21.265625 31.882812 C 21.261719 31.425781 21.003906 31.011719 20.601562 30.800781 Z M 20.351562 32.035156 C 20.214844 32.167969 20.011719 32.210938 19.835938 32.136719 C 19.660156 32.0625 19.546875 31.890625 19.550781 31.699219 C 20.207031 31.230469 20.378906 31.34375 20.453125 31.519531 C 20.527344 31.695312 20.488281 31.898438 20.351562 32.035156 Z M 35 20 C 35.007812 20.117188 35.007812 20.234375 35 20.351562 L 33.332031 22.015625 L 26.667969 22.015625 L 26.667969 20.851562 L 32.832031 20.851562 L 35 18.75 C 35 19.167969 35 19.582031 35 20 Z M 24.734375 13.484375 L 29.734375 8.484375 C 30.039062 8.726562 30.328125 8.988281 30.601562 9.265625 L 25 14.882812 C 24.988281 14.40625 24.898438 13.933594 24.734375 13.484375 Z M 8.832031 22.917969 C 8.664062 22.882812 8.488281 22.882812 8.316406 22.917969 C 8.144531 22.964844 7.984375 23.050781 7.851562 23.167969 C 7.726562 23.292969 7.625 23.441406 7.550781 23.601562 C 7.476562 23.757812 7.4375 23.925781 7.433594 24.101562 C 7.4375 24.277344 7.476562 24.453125 7.550781 24.617188 C 7.625 24.777344 7.726562 24.921875 7.851562 25.050781 C 7.984375 25.164062 8.144531 25.25 8.316406 25.300781 C 8.488281 25.332031 8.664062 25.332031 8.832031 25.300781 C 9.289062 25.296875 9.707031 25.039062 9.917969 24.632812 L 13.332031 24.632812 L 13.332031 23.464844 L 10 23.464844 C 9.882812 23.261719 9.707031 23.09375 9.5 22.984375 C 9.289062 22.902344 9.058594 22.882812 8.832031 22.917969 Z M 9.132812 24.449219 L 8.648438 24.582031 L 8.433594 23.785156 L 8.582031 23.683594 L 8.765625 23.683594 C 8.957031 23.679688 9.128906 23.792969 9.203125 23.96875 C 9.277344 24.148438 9.238281 24.351562 9.101562 24.484375 Z M 28.484375 27.382812 L 31.148438 30 C 30.882812 30.285156 30.601562 30.535156 30.316406 30.800781 L 28.015625 28.515625 L 26.082031 28.515625 L 26.082031 31.082031 L 27.75 32.75 C 27.398438 32.949219 27.035156 33.117188 26.667969 33.300781 L 25 31.667969 L 25 28.550781 L 23.332031 28.550781 L 23.332031 30.949219 L 22.167969 30.949219 L 22.167969 28.332031 L 25 28.332031 C 25.644531 28.359375 26.238281 27.980469 26.484375 27.382812 Z M 20 6.832031 C 19.667969 6.832031 19.351562 6.964844 19.117188 7.199219 C 18.878906 7.425781 18.746094 7.738281 18.75 8.066406 C 18.761719 8.292969 18.832031 8.507812 18.949219 8.699219 C 19.066406 8.894531 19.234375 9.054688 19.433594 9.167969 L 19.433594 10 L 20 10 C 20.199219 9.984375 20.398438 9.984375 20.601562 10 L 20.601562 9.167969 C 20.800781 9.054688 20.964844 8.894531 21.082031 8.699219 C 21.203125 8.511719 21.269531 8.289062 21.265625 8.066406 C 21.246094 7.738281 21.105469 7.429688 20.867188 7.199219 C 20.628906 6.980469 20.324219 6.847656 20 6.832031 Z M 20.382812 8.332031 L 20.183594 7.601562 L 20.332031 7.699219 L 20.433594 7.851562 Z M 15 28.332031 L 15.082031 28.332031 L 15.082031 31.566406 L 13.332031 33.332031 C 12.964844 33.148438 12.632812 32.949219 12.285156 32.75 L 13.949219 31.082031 L 13.949219 29.199219 L 12.601562 30.566406 L 9.882812 30.566406 L 9.882812 31.035156 C 9.714844 30.898438 9.554688 30.753906 9.398438 30.601562 C 9.148438 30.367188 8.949219 30.082031 8.714844 29.816406 L 8.714844 29.398438 L 12.050781 29.398438 L 13.714844 27.734375 C 14.058594 28.199219 14.523438 28.367188 15 28.332031 Z M 6.964844 22.015625 L 5 20.082031 C 5 19.535156 5 19 5 18.417969 L 7.398438 20.800781 L 13.332031 20.800781 L 13.332031 21.964844 Z M 8.632812 14.015625 C 8.6875 14.238281 8.804688 14.441406 8.964844 14.601562 C 9.429688 15.046875 10.167969 15.046875 10.632812 14.601562 C 11.058594 14.125 11.058594 13.40625 10.632812 12.933594 C 10.316406 12.621094 9.859375 12.503906 9.433594 12.617188 L 7.933594 11.066406 C 7.699219 11.367188 7.484375 11.667969 7.285156 11.984375 L 8.714844 13.332031 C 8.644531 13.554688 8.636719 13.792969 8.699219 14.015625 Z M 9.566406 13.332031 Z M 13.484375 27.351562 L 7.382812 27.351562 L 7.117188 27.617188 C 6.917969 27.265625 6.714844 26.933594 6.550781 26.566406 L 6.933594 26.183594 L 13.332031 26.183594 L 13.332031 26.667969 C 13.339844 26.902344 13.390625 27.132812 13.484375 27.351562 Z M 23.332031 32.082031 L 25 33.832031 L 25 34.082031 C 24.617188 34.214844 24.234375 34.367188 23.832031 34.464844 L 23.832031 34.332031 L 22.398438 32.898438 Z M 29.449219 13.332031 C 29.230469 13.367188 29.03125 13.46875 28.867188 13.617188 C 28.441406 14.089844 28.441406 14.808594 28.867188 15.285156 C 29.339844 15.707031 30.058594 15.707031 30.535156 15.285156 C 30.828125 14.957031 30.9375 14.507812 30.832031 14.082031 L 32.75 12.167969 C 32.550781 11.851562 32.351562 11.535156 32.132812 11.234375 L 30.082031 13.332031 C 29.875 13.273438 29.65625 13.273438 29.449219 13.332031 Z M 30.214844 14.464844 Z M 32.484375 26.417969 L 33.183594 27.117188 C 32.984375 27.464844 32.800781 27.832031 32.582031 28.167969 L 31.667969 27.199219 Z M 7.867188 18.332031 L 5.550781 16.050781 C 5.667969 15.648438 5.800781 15.234375 5.949219 14.832031 L 8.332031 17.199219 L 10.734375 17.199219 L 10.734375 16.117188 L 11.898438 16.117188 L 11.898438 18.332031 Z M 23.898438 7.148438 L 22.734375 7.148438 L 22.734375 5.265625 C 23.132812 5.265625 23.515625 5.433594 23.898438 5.535156 Z M 24.832031 9.667969 C 24.976562 9.746094 25.136719 9.789062 25.300781 9.785156 C 25.484375 9.78125 25.667969 9.734375 25.832031 9.648438 C 26.003906 9.570312 26.152344 9.453125 26.265625 9.300781 C 26.382812 9.148438 26.464844 8.972656 26.5 8.785156 C 26.542969 8.601562 26.542969 8.414062 26.5 8.234375 L 27.667969 7.066406 L 26.582031 6.484375 L 25.683594 7.382812 C 25.46875 7.324219 25.246094 7.324219 25.035156 7.382812 C 24.820312 7.433594 24.628906 7.550781 24.484375 7.714844 C 24.058594 8.191406 24.058594 8.910156 24.484375 9.382812 C 24.570312 9.515625 24.691406 9.625 24.832031 9.699219 Z M 25 8.332031 Z M 15.601562 5.667969 L 18.035156 8.117188 L 18.035156 10.417969 C 17.613281 10.601562 17.222656 10.84375 16.867188 11.132812 L 16.867188 8.582031 L 14.417969 6.117188 C 14.804688 5.945312 15.199219 5.796875 15.601562 5.667969 Z M 13.535156 9.183594 L 11.867188 7.515625 C 12.199219 7.300781 12.550781 7.117188 12.917969 6.917969 L 14.417969 8.417969 Z M 10.316406 8.582031 L 15.316406 13.582031 C 15.148438 14.039062 15.042969 14.515625 15 15 L 9.464844 9.367188 C 9.734375 9.101562 10 8.832031 10.316406 8.582031 Z M 10.316406 8.582031 "/>
</g>
</defs>
<g id="surface1">
<path style=" stroke:none;fill-rule:nonzero;fill:rgb(0%,0%,0%);fill-opacity:1;" d="M 35.25 9.816406 C 30.207031 2.257812 20.386719 -0.464844 12.171875 3.414062 C 3.953125 7.296875 -0.179688 16.609375 2.453125 25.304688 C 5.085938 34.003906 13.691406 39.457031 22.683594 38.128906 C 31.671875 36.800781 38.328125 29.085938 38.332031 20 C 38.335938 16.375 37.261719 12.832031 35.25 9.816406 Z M 32.464844 28.332031 C 28.332031 34.511719 20.296875 36.730469 13.578125 33.546875 C 6.859375 30.363281 3.484375 22.742188 5.648438 15.628906 C 7.8125 8.515625 14.855469 4.058594 22.210938 5.15625 C 29.5625 6.25 35.003906 12.566406 35 20 C 35 22.96875 34.117188 25.867188 32.464844 28.332031 Z M 25 18.332031 L 25 15 C 25 12.238281 22.761719 10 20 10 C 17.238281 10 15 12.238281 15 15 L 15 18.332031 C 14.078125 18.332031 13.332031 19.078125 13.332031 20 L 13.332031 26.667969 C 13.332031 27.585938 14.078125 28.332031 15 28.332031 L 25 28.332031 C 25.921875 28.332031 26.667969 27.585938 26.667969 26.667969 L 26.667969 20 C 26.667969 19.078125 25.921875 18.332031 25 18.332031 Z M 22.5 18.332031 L 17.5 18.332031 L 17.5 15 C 17.5 13.621094 18.621094 12.5 20 12.5 C 21.378906 12.5 22.5 13.621094 22.5 15 Z M 22.5 18.332031 "/>
<use xlink:href="#surface5" mask="url(#mask0)"/>
</g>
</svg>
