<?xml version="1.0" encoding="UTF-8"?>
<svg xmlns="http://www.w3.org/2000/svg" xmlns:xlink="http://www.w3.org/1999/xlink" width="40px" height="40px" viewBox="0 0 40 40" version="1.1">
<g id="surface1">
<path style=" stroke:none;fill-rule:nonzero;fill:rgb(0%,0%,0%);fill-opacity:1;" d="M 19.191406 0.0859375 C 18.402344 0.222656 17.398438 0.777344 16.878906 1.359375 C 15.140625 3.289062 15.390625 6.175781 17.4375 7.714844 C 17.957031 8.105469 18.40625 8.3125 19.082031 8.46875 L 19.488281 8.566406 L 18.265625 8.566406 C 16.472656 8.574219 16.066406 8.636719 15.246094 9.039062 C 13.996094 9.648438 13.175781 10.753906 12.917969 12.175781 C 12.867188 12.457031 12.851562 12.75 12.867188 13.582031 C 12.878906 14.617188 12.878906 14.636719 12.984375 14.855469 C 13.183594 15.285156 13.542969 15.582031 13.960938 15.671875 C 14.125 15.707031 15.746094 15.714844 20.121094 15.707031 L 26.0625 15.695312 L 26.292969 15.582031 C 26.582031 15.449219 26.855469 15.171875 27.007812 14.867188 L 27.121094 14.632812 L 27.128906 13.632812 C 27.132812 13.082031 27.117188 12.492188 27.097656 12.328125 C 26.847656 10.367188 25.257812 8.816406 23.296875 8.613281 C 23.074219 8.59375 22.355469 8.570312 21.699219 8.566406 L 20.511719 8.566406 L 20.917969 8.46875 C 21.613281 8.308594 22.140625 8.058594 22.671875 7.628906 C 23.171875 7.222656 23.527344 6.78125 23.824219 6.183594 C 24.15625 5.523438 24.261719 5.035156 24.257812 4.222656 C 24.253906 3.75 24.234375 3.582031 24.148438 3.253906 C 23.820312 2.011719 23.003906 1.011719 21.859375 0.453125 C 21.199219 0.125 20.960938 0.0742188 20.121094 0.0585938 C 19.730469 0.0546875 19.308594 0.0625 19.191406 0.0859375 Z M 19.191406 0.0859375 "/>
<path style=" stroke:none;fill-rule:nonzero;fill:rgb(0%,0%,0%);fill-opacity:1;" d="M 32.347656 7.1875 C 30.148438 7.464844 28.511719 9.363281 28.59375 11.550781 C 28.664062 13.652344 30.050781 15.230469 32.203125 15.667969 C 32.335938 15.695312 32.015625 15.707031 31.144531 15.710938 C 29.855469 15.714844 29.40625 15.746094 28.917969 15.875 C 27.535156 16.230469 26.394531 17.308594 25.941406 18.699219 C 25.890625 18.871094 25.832031 19.09375 25.816406 19.191406 L 25.789062 19.371094 L 26.667969 19.664062 C 28.722656 20.34375 30.421875 21.203125 32.417969 22.582031 L 32.808594 22.855469 L 35.761719 22.855469 C 39.007812 22.855469 38.933594 22.859375 39.347656 22.609375 C 39.652344 22.421875 39.867188 22.097656 39.960938 21.667969 C 40.039062 21.300781 39.988281 19.550781 39.882812 19.09375 C 39.695312 18.289062 39.375 17.691406 38.816406 17.09375 C 38.3125 16.550781 37.746094 16.1875 37.070312 15.960938 C 36.484375 15.761719 35.992188 15.71875 34.550781 15.710938 L 33.285156 15.707031 L 33.652344 15.632812 C 34.183594 15.527344 34.71875 15.308594 35.164062 15.027344 C 35.402344 14.871094 35.539062 14.757812 35.875 14.4375 C 36.382812 13.9375 36.742188 13.332031 36.964844 12.59375 C 37.109375 12.101562 37.148438 11.140625 37.039062 10.617188 C 36.859375 9.734375 36.507812 9.074219 35.867188 8.433594 C 35.132812 7.703125 34.34375 7.3125 33.304688 7.183594 C 32.945312 7.140625 32.738281 7.140625 32.347656 7.1875 Z M 32.347656 7.1875 "/>
<path style=" stroke:none;fill-rule:nonzero;fill:rgb(0%,0%,0%);fill-opacity:1;" d="M 6.285156 7.25 C 5.636719 7.390625 5.007812 7.6875 4.511719 8.082031 C 3.15625 9.160156 2.59375 10.859375 3.023438 12.550781 C 3.21875 13.3125 3.785156 14.210938 4.351562 14.65625 C 4.472656 14.753906 4.628906 14.878906 4.6875 14.929688 C 5.015625 15.207031 5.890625 15.554688 6.507812 15.652344 C 6.59375 15.667969 6.652344 15.691406 6.640625 15.703125 C 6.628906 15.710938 6.085938 15.71875 5.4375 15.714844 C 4.789062 15.714844 4.085938 15.730469 3.875 15.753906 C 2.84375 15.875 2.011719 16.269531 1.300781 16.980469 C 0.613281 17.664062 0.25 18.355469 0.078125 19.304688 C -0.0195312 19.867188 -0.03125 21.457031 0.0625 21.765625 C 0.15625 22.082031 0.320312 22.335938 0.542969 22.523438 C 0.933594 22.847656 0.785156 22.832031 4.175781 22.847656 L 7.1875 22.859375 L 7.441406 22.671875 C 9.253906 21.34375 11.585938 20.175781 13.753906 19.511719 C 13.992188 19.441406 14.1875 19.375 14.195312 19.367188 C 14.203125 19.359375 14.171875 19.195312 14.125 19 C 13.828125 17.746094 12.910156 16.640625 11.734375 16.109375 C 11.011719 15.789062 10.472656 15.714844 8.859375 15.714844 C 8.203125 15.71875 7.65625 15.710938 7.644531 15.703125 C 7.636719 15.691406 7.707031 15.667969 7.804688 15.652344 C 8.160156 15.601562 8.601562 15.457031 9 15.269531 C 10.117188 14.742188 10.980469 13.679688 11.28125 12.453125 C 11.390625 12.011719 11.394531 11.945312 11.375 11.308594 C 11.359375 10.730469 11.34375 10.578125 11.25 10.269531 C 10.90625 9.125 10.164062 8.21875 9.09375 7.636719 C 8.839844 7.496094 8.203125 7.285156 7.859375 7.222656 C 7.523438 7.167969 6.605469 7.179688 6.285156 7.25 Z M 6.285156 7.25 "/>
<path style=" stroke:none;fill-rule:nonzero;fill:rgb(0%,0%,0%);fill-opacity:1;" d="M 18.960938 20.039062 C 18.601562 20.058594 18.234375 20.082031 18.144531 20.09375 C 18.054688 20.109375 17.871094 20.128906 17.734375 20.144531 C 17.601562 20.15625 17.242188 20.203125 16.9375 20.25 C 13.152344 20.820312 9.496094 22.558594 6.613281 25.164062 C 6.257812 25.480469 5.320312 26.433594 5.015625 26.777344 C 2.65625 29.457031 1.023438 32.765625 0.371094 36.203125 C 0.175781 37.246094 0 38.871094 0 39.703125 L 0 40 L 40 40 L 40 39.84375 C 40 39.527344 39.914062 38.324219 39.855469 37.777344 C 39.667969 36.078125 39.234375 34.308594 38.621094 32.753906 C 37.371094 29.582031 35.492188 26.976562 32.792969 24.652344 C 32.46875 24.371094 31.433594 23.605469 30.960938 23.292969 C 27.925781 21.304688 24.527344 20.207031 20.878906 20.039062 C 19.996094 20 19.933594 20 18.960938 20.039062 Z M 20.992188 22.914062 C 21.152344 22.980469 21.328125 23.164062 21.382812 23.320312 C 21.417969 23.398438 21.429688 25.753906 21.429688 31.003906 L 21.429688 38.570312 L 17.144531 38.570312 L 17.144531 23.375 L 17.246094 23.203125 C 17.308594 23.089844 17.402344 23 17.519531 22.941406 C 17.691406 22.859375 17.746094 22.855469 19.277344 22.855469 C 20.53125 22.855469 20.886719 22.871094 20.992188 22.914062 Z M 26.707031 27.199219 C 26.867188 27.265625 27.039062 27.449219 27.097656 27.605469 C 27.128906 27.6875 27.144531 29.414062 27.144531 33.148438 L 27.144531 38.570312 L 24.992188 38.5625 L 22.835938 38.550781 L 22.824219 33.386719 C 22.816406 30.546875 22.824219 28.09375 22.835938 27.929688 C 22.871094 27.574219 23 27.34375 23.246094 27.222656 C 23.398438 27.148438 23.492188 27.144531 24.992188 27.144531 C 26.246094 27.144531 26.601562 27.15625 26.707031 27.199219 Z M 31.734375 27.21875 C 31.824219 27.261719 31.925781 27.332031 31.964844 27.371094 C 32.03125 27.449219 32.164062 27.792969 32.164062 27.890625 C 32.164062 27.917969 32.304688 28.003906 32.484375 28.074219 C 33.480469 28.480469 34.171875 29.398438 34.269531 30.449219 C 34.304688 30.820312 34.265625 30.992188 34.109375 31.171875 C 33.875 31.441406 33.511719 31.507812 33.203125 31.335938 C 32.996094 31.214844 32.875 30.996094 32.84375 30.675781 C 32.792969 30.121094 32.484375 29.660156 32.023438 29.433594 C 31.59375 29.21875 30.984375 29.28125 30.585938 29.574219 C 30.332031 29.765625 30.191406 29.960938 30.085938 30.277344 C 29.980469 30.585938 29.980469 30.820312 30.074219 31.128906 C 30.167969 31.425781 30.296875 31.628906 30.515625 31.800781 C 30.78125 32.015625 30.992188 32.085938 31.546875 32.144531 C 31.832031 32.175781 32.1875 32.238281 32.332031 32.285156 C 33.167969 32.5625 33.867188 33.273438 34.152344 34.144531 C 34.246094 34.429688 34.261719 34.535156 34.261719 35 C 34.261719 35.464844 34.246094 35.570312 34.152344 35.855469 C 33.875 36.699219 33.214844 37.378906 32.398438 37.675781 C 32.179688 37.757812 32.167969 37.769531 32.144531 37.933594 C 32.050781 38.515625 31.359375 38.78125 30.941406 38.394531 C 30.824219 38.285156 30.699219 38.015625 30.695312 37.875 C 30.695312 37.78125 30.660156 37.753906 30.441406 37.671875 C 29.386719 37.289062 28.644531 36.304688 28.582031 35.21875 C 28.5625 34.898438 28.570312 34.804688 28.632812 34.675781 C 28.789062 34.355469 29.277344 34.191406 29.585938 34.355469 C 29.847656 34.488281 29.964844 34.6875 30.003906 35.0625 C 30.054688 35.488281 30.183594 35.765625 30.460938 36.027344 C 30.761719 36.3125 31.058594 36.421875 31.488281 36.398438 C 31.902344 36.378906 32.148438 36.269531 32.4375 35.976562 C 32.972656 35.429688 32.96875 34.554688 32.433594 34.019531 C 32.128906 33.722656 31.917969 33.632812 31.414062 33.59375 C 30.613281 33.527344 30.015625 33.292969 29.539062 32.855469 C 28.886719 32.257812 28.570312 31.558594 28.570312 30.707031 C 28.570312 29.890625 28.90625 29.152344 29.515625 28.601562 C 29.757812 28.375 30.238281 28.097656 30.542969 28 C 30.664062 27.964844 30.695312 27.933594 30.695312 27.84375 C 30.695312 27.707031 30.820312 27.429688 30.921875 27.339844 C 31.15625 27.132812 31.453125 27.089844 31.734375 27.21875 Z M 15.277344 28.628906 C 15.4375 28.695312 15.613281 28.878906 15.667969 29.03125 C 15.703125 29.109375 15.714844 30.628906 15.714844 33.859375 L 15.714844 38.570312 L 11.4375 38.570312 L 11.40625 38.195312 C 11.394531 37.988281 11.386719 35.871094 11.394531 33.488281 L 11.40625 29.160156 L 11.511719 28.960938 C 11.585938 28.816406 11.660156 28.734375 11.792969 28.664062 C 11.972656 28.570312 11.980469 28.570312 13.558594 28.570312 C 14.816406 28.570312 15.171875 28.582031 15.277344 28.628906 Z M 9.5625 34.34375 C 9.75 34.429688 9.871094 34.542969 9.9375 34.710938 C 9.992188 34.828125 10 35.164062 10 36.714844 L 10 38.570312 L 5.714844 38.570312 L 5.714844 34.804688 L 5.816406 34.632812 C 5.882812 34.519531 5.976562 34.429688 6.089844 34.371094 C 6.261719 34.289062 6.320312 34.285156 7.847656 34.285156 C 9.144531 34.285156 9.457031 34.296875 9.5625 34.34375 Z M 9.5625 34.34375 "/>
</g>
</svg>
